<mxfile host="app.diagrams.net" modified="2020-11-21T07:19:22.217Z" agent="5.0 (Windows NT 10.0; Win64; x64) AppleWebKit/537.36 (KHTML, like Gecko) Chrome/86.0.4240.198 Safari/537.36" etag="LdeBMZhWjyTNJwoU9KiP" version="13.10.0" type="github">
  <diagram id="C5RBs43oDa-KdzZeNtuy" name="Page-1">
    <mxGraphModel dx="1483" dy="829" grid="1" gridSize="10" guides="1" tooltips="1" connect="1" arrows="1" fold="1" page="1" pageScale="1" pageWidth="827" pageHeight="1169" math="0" shadow="0">
      <root>
        <mxCell id="WIyWlLk6GJQsqaUBKTNV-0" />
        <mxCell id="WIyWlLk6GJQsqaUBKTNV-1" parent="WIyWlLk6GJQsqaUBKTNV-0" />
        <mxCell id="zkfFHV4jXpPFQw0GAbJ--6" value="Vendor" style="swimlane;fontStyle=1;align=center;verticalAlign=top;childLayout=stackLayout;horizontal=1;startSize=26;horizontalStack=0;resizeParent=1;resizeLast=0;collapsible=1;marginBottom=0;rounded=0;shadow=0;strokeWidth=1;" parent="WIyWlLk6GJQsqaUBKTNV-1" vertex="1">
          <mxGeometry x="500" y="420" width="270" height="190" as="geometry">
            <mxRectangle x="130" y="380" width="160" height="26" as="alternateBounds" />
          </mxGeometry>
        </mxCell>
        <mxCell id="-BMvtD9iF8CpCJzqYJ93-52" value="&amp;nbsp;+ vendorName: String" style="text;html=1;align=left;verticalAlign=middle;resizable=0;points=[];autosize=1;" vertex="1" parent="zkfFHV4jXpPFQw0GAbJ--6">
          <mxGeometry y="26" width="270" height="20" as="geometry" />
        </mxCell>
        <mxCell id="-BMvtD9iF8CpCJzqYJ93-53" value="&amp;nbsp;+ credit: float" style="text;html=1;align=left;verticalAlign=middle;resizable=0;points=[];autosize=1;" vertex="1" parent="zkfFHV4jXpPFQw0GAbJ--6">
          <mxGeometry y="46" width="270" height="20" as="geometry" />
        </mxCell>
        <mxCell id="-BMvtD9iF8CpCJzqYJ93-54" value="&amp;nbsp;+ products: Product [0...100]" style="text;html=1;align=left;verticalAlign=middle;resizable=0;points=[];autosize=1;" vertex="1" parent="zkfFHV4jXpPFQw0GAbJ--6">
          <mxGeometry y="66" width="270" height="20" as="geometry" />
        </mxCell>
        <mxCell id="-BMvtD9iF8CpCJzqYJ93-55" value="&amp;nbsp;+ order: Order [0...100]" style="text;html=1;align=left;verticalAlign=middle;resizable=0;points=[];autosize=1;" vertex="1" parent="zkfFHV4jXpPFQw0GAbJ--6">
          <mxGeometry y="86" width="270" height="20" as="geometry" />
        </mxCell>
        <mxCell id="zkfFHV4jXpPFQw0GAbJ--9" value="" style="line;html=1;strokeWidth=1;align=left;verticalAlign=middle;spacingTop=-1;spacingLeft=3;spacingRight=3;rotatable=0;labelPosition=right;points=[];portConstraint=eastwest;" parent="zkfFHV4jXpPFQw0GAbJ--6" vertex="1">
          <mxGeometry y="106" width="270" height="4" as="geometry" />
        </mxCell>
        <mxCell id="-BMvtD9iF8CpCJzqYJ93-56" value="&amp;nbsp;+ checkDue(): float" style="text;html=1;align=left;verticalAlign=middle;resizable=0;points=[];autosize=1;" vertex="1" parent="zkfFHV4jXpPFQw0GAbJ--6">
          <mxGeometry y="110" width="270" height="20" as="geometry" />
        </mxCell>
        <mxCell id="-BMvtD9iF8CpCJzqYJ93-57" value="&amp;nbsp;+ fetchProductById(id: int): Product" style="text;html=1;align=left;verticalAlign=middle;resizable=0;points=[];autosize=1;" vertex="1" parent="zkfFHV4jXpPFQw0GAbJ--6">
          <mxGeometry y="130" width="270" height="20" as="geometry" />
        </mxCell>
        <mxCell id="-BMvtD9iF8CpCJzqYJ93-58" value="&amp;nbsp;+ fetchProductByName(name: String): Product" style="text;html=1;align=left;verticalAlign=middle;resizable=0;points=[];autosize=1;" vertex="1" parent="zkfFHV4jXpPFQw0GAbJ--6">
          <mxGeometry y="150" width="270" height="20" as="geometry" />
        </mxCell>
        <mxCell id="zkfFHV4jXpPFQw0GAbJ--17" value="BusinessParner" style="swimlane;fontStyle=0;align=center;verticalAlign=top;childLayout=stackLayout;horizontal=1;startSize=26;horizontalStack=0;resizeParent=1;resizeLast=0;collapsible=1;marginBottom=0;rounded=0;shadow=0;strokeWidth=1;" parent="WIyWlLk6GJQsqaUBKTNV-1" vertex="1">
          <mxGeometry x="640" y="120" width="160" height="190" as="geometry">
            <mxRectangle x="550" y="140" width="160" height="26" as="alternateBounds" />
          </mxGeometry>
        </mxCell>
        <mxCell id="zkfFHV4jXpPFQw0GAbJ--18" value="+ id: int" style="text;align=left;verticalAlign=top;spacingLeft=4;spacingRight=4;overflow=hidden;rotatable=0;points=[[0,0.5],[1,0.5]];portConstraint=eastwest;" parent="zkfFHV4jXpPFQw0GAbJ--17" vertex="1">
          <mxGeometry y="26" width="160" height="26" as="geometry" />
        </mxCell>
        <mxCell id="zkfFHV4jXpPFQw0GAbJ--19" value="+ address: Address&#xa;" style="text;align=left;verticalAlign=top;spacingLeft=4;spacingRight=4;overflow=hidden;rotatable=0;points=[[0,0.5],[1,0.5]];portConstraint=eastwest;rounded=0;shadow=0;html=0;" parent="zkfFHV4jXpPFQw0GAbJ--17" vertex="1">
          <mxGeometry y="52" width="160" height="26" as="geometry" />
        </mxCell>
        <mxCell id="zkfFHV4jXpPFQw0GAbJ--20" value="+ contact: Contact" style="text;align=left;verticalAlign=top;spacingLeft=4;spacingRight=4;overflow=hidden;rotatable=0;points=[[0,0.5],[1,0.5]];portConstraint=eastwest;rounded=0;shadow=0;html=0;" parent="zkfFHV4jXpPFQw0GAbJ--17" vertex="1">
          <mxGeometry y="78" width="160" height="26" as="geometry" />
        </mxCell>
        <mxCell id="zkfFHV4jXpPFQw0GAbJ--23" value="" style="line;html=1;strokeWidth=1;align=left;verticalAlign=middle;spacingTop=-1;spacingLeft=3;spacingRight=3;rotatable=0;labelPosition=right;points=[];portConstraint=eastwest;" parent="zkfFHV4jXpPFQw0GAbJ--17" vertex="1">
          <mxGeometry y="104" width="160" height="8" as="geometry" />
        </mxCell>
        <mxCell id="zkfFHV4jXpPFQw0GAbJ--24" value="+ getContact(): Contact" style="text;align=left;verticalAlign=top;spacingLeft=4;spacingRight=4;overflow=hidden;rotatable=0;points=[[0,0.5],[1,0.5]];portConstraint=eastwest;" parent="zkfFHV4jXpPFQw0GAbJ--17" vertex="1">
          <mxGeometry y="112" width="160" height="26" as="geometry" />
        </mxCell>
        <mxCell id="zkfFHV4jXpPFQw0GAbJ--25" value="+ getAddress(): Address" style="text;align=left;verticalAlign=top;spacingLeft=4;spacingRight=4;overflow=hidden;rotatable=0;points=[[0,0.5],[1,0.5]];portConstraint=eastwest;" parent="zkfFHV4jXpPFQw0GAbJ--17" vertex="1">
          <mxGeometry y="138" width="160" height="26" as="geometry" />
        </mxCell>
        <mxCell id="-BMvtD9iF8CpCJzqYJ93-10" value="Order" style="swimlane;fontStyle=1;align=center;verticalAlign=top;childLayout=stackLayout;horizontal=1;startSize=26;horizontalStack=0;resizeParent=1;resizeParentMax=0;resizeLast=0;collapsible=1;marginBottom=0;" vertex="1" parent="WIyWlLk6GJQsqaUBKTNV-1">
          <mxGeometry x="260" y="350" width="180" height="186" as="geometry" />
        </mxCell>
        <mxCell id="-BMvtD9iF8CpCJzqYJ93-15" value="&amp;nbsp;+ id: int" style="text;html=1;align=left;verticalAlign=middle;resizable=0;points=[];autosize=1;" vertex="1" parent="-BMvtD9iF8CpCJzqYJ93-10">
          <mxGeometry y="26" width="180" height="20" as="geometry" />
        </mxCell>
        <mxCell id="-BMvtD9iF8CpCJzqYJ93-16" value="&amp;nbsp;+ vendor: Vendor" style="text;html=1;align=left;verticalAlign=middle;resizable=0;points=[];autosize=1;" vertex="1" parent="-BMvtD9iF8CpCJzqYJ93-10">
          <mxGeometry y="46" width="180" height="20" as="geometry" />
        </mxCell>
        <mxCell id="-BMvtD9iF8CpCJzqYJ93-17" value="&amp;nbsp;+ date: String" style="text;html=1;align=left;verticalAlign=middle;resizable=0;points=[];autosize=1;" vertex="1" parent="-BMvtD9iF8CpCJzqYJ93-10">
          <mxGeometry y="66" width="180" height="20" as="geometry" />
        </mxCell>
        <mxCell id="-BMvtD9iF8CpCJzqYJ93-19" value="&amp;nbsp;+ orderedProduct: Product" style="text;html=1;align=left;verticalAlign=middle;resizable=0;points=[];autosize=1;" vertex="1" parent="-BMvtD9iF8CpCJzqYJ93-10">
          <mxGeometry y="86" width="180" height="20" as="geometry" />
        </mxCell>
        <mxCell id="-BMvtD9iF8CpCJzqYJ93-20" value="&amp;nbsp;+ orderedQuantity: int" style="text;html=1;align=left;verticalAlign=middle;resizable=0;points=[];autosize=1;" vertex="1" parent="-BMvtD9iF8CpCJzqYJ93-10">
          <mxGeometry y="106" width="180" height="20" as="geometry" />
        </mxCell>
        <mxCell id="-BMvtD9iF8CpCJzqYJ93-95" value="" style="endArrow=none;html=1;edgeStyle=orthogonalEdgeStyle;" edge="1" parent="-BMvtD9iF8CpCJzqYJ93-10">
          <mxGeometry relative="1" as="geometry">
            <mxPoint x="180" y="120" as="sourcePoint" />
            <mxPoint x="240" y="120" as="targetPoint" />
          </mxGeometry>
        </mxCell>
        <mxCell id="-BMvtD9iF8CpCJzqYJ93-21" value="&amp;nbsp;+ amountPaid: float" style="text;html=1;align=left;verticalAlign=middle;resizable=0;points=[];autosize=1;" vertex="1" parent="-BMvtD9iF8CpCJzqYJ93-10">
          <mxGeometry y="126" width="180" height="20" as="geometry" />
        </mxCell>
        <mxCell id="-BMvtD9iF8CpCJzqYJ93-12" value="" style="line;strokeWidth=1;fillColor=none;align=left;verticalAlign=middle;spacingTop=-1;spacingLeft=3;spacingRight=3;rotatable=0;labelPosition=right;points=[];portConstraint=eastwest;" vertex="1" parent="-BMvtD9iF8CpCJzqYJ93-10">
          <mxGeometry y="146" width="180" height="14" as="geometry" />
        </mxCell>
        <mxCell id="-BMvtD9iF8CpCJzqYJ93-13" value="+ updateVendorCredit(): void" style="text;strokeColor=none;fillColor=none;align=left;verticalAlign=top;spacingLeft=4;spacingRight=4;overflow=hidden;rotatable=0;points=[[0,0.5],[1,0.5]];portConstraint=eastwest;" vertex="1" parent="-BMvtD9iF8CpCJzqYJ93-10">
          <mxGeometry y="160" width="180" height="26" as="geometry" />
        </mxCell>
        <mxCell id="-BMvtD9iF8CpCJzqYJ93-22" value="Product" style="swimlane;fontStyle=1;align=center;verticalAlign=top;childLayout=stackLayout;horizontal=1;startSize=26;horizontalStack=0;resizeParent=1;resizeParentMax=0;resizeLast=0;collapsible=1;marginBottom=0;" vertex="1" parent="WIyWlLk6GJQsqaUBKTNV-1">
          <mxGeometry x="20" y="350" width="180" height="250" as="geometry" />
        </mxCell>
        <mxCell id="-BMvtD9iF8CpCJzqYJ93-34" value="&amp;nbsp;+ id: int" style="text;html=1;align=left;verticalAlign=middle;resizable=0;points=[];autosize=1;" vertex="1" parent="-BMvtD9iF8CpCJzqYJ93-22">
          <mxGeometry y="26" width="180" height="20" as="geometry" />
        </mxCell>
        <mxCell id="-BMvtD9iF8CpCJzqYJ93-35" value="&amp;nbsp;+ name: String" style="text;html=1;align=left;verticalAlign=middle;resizable=0;points=[];autosize=1;" vertex="1" parent="-BMvtD9iF8CpCJzqYJ93-22">
          <mxGeometry y="46" width="180" height="20" as="geometry" />
        </mxCell>
        <mxCell id="-BMvtD9iF8CpCJzqYJ93-36" value="&amp;nbsp;+ category: String" style="text;html=1;align=left;verticalAlign=middle;resizable=0;points=[];autosize=1;" vertex="1" parent="-BMvtD9iF8CpCJzqYJ93-22">
          <mxGeometry y="66" width="180" height="20" as="geometry" />
        </mxCell>
        <mxCell id="-BMvtD9iF8CpCJzqYJ93-37" value="&amp;nbsp;+ salesPrice: float" style="text;html=1;align=left;verticalAlign=middle;resizable=0;points=[];autosize=1;" vertex="1" parent="-BMvtD9iF8CpCJzqYJ93-22">
          <mxGeometry y="86" width="180" height="20" as="geometry" />
        </mxCell>
        <mxCell id="-BMvtD9iF8CpCJzqYJ93-38" value="&amp;nbsp;+ cost: float" style="text;html=1;align=left;verticalAlign=middle;resizable=0;points=[];autosize=1;" vertex="1" parent="-BMvtD9iF8CpCJzqYJ93-22">
          <mxGeometry y="106" width="180" height="20" as="geometry" />
        </mxCell>
        <mxCell id="-BMvtD9iF8CpCJzqYJ93-39" value="&amp;nbsp;+ quantity: int" style="text;html=1;align=left;verticalAlign=middle;resizable=0;points=[];autosize=1;" vertex="1" parent="-BMvtD9iF8CpCJzqYJ93-22">
          <mxGeometry y="126" width="180" height="20" as="geometry" />
        </mxCell>
        <mxCell id="-BMvtD9iF8CpCJzqYJ93-40" value="&amp;nbsp;+ active: boolean" style="text;html=1;align=left;verticalAlign=middle;resizable=0;points=[];autosize=1;" vertex="1" parent="-BMvtD9iF8CpCJzqYJ93-22">
          <mxGeometry y="146" width="180" height="20" as="geometry" />
        </mxCell>
        <mxCell id="-BMvtD9iF8CpCJzqYJ93-24" value="" style="line;strokeWidth=1;fillColor=none;align=left;verticalAlign=middle;spacingTop=-1;spacingLeft=3;spacingRight=3;rotatable=0;labelPosition=right;points=[];portConstraint=eastwest;" vertex="1" parent="-BMvtD9iF8CpCJzqYJ93-22">
          <mxGeometry y="166" width="180" height="4" as="geometry" />
        </mxCell>
        <mxCell id="-BMvtD9iF8CpCJzqYJ93-42" value="&amp;nbsp;+ getProfitOrLoss(): float" style="text;html=1;align=left;verticalAlign=middle;resizable=0;points=[];autosize=1;" vertex="1" parent="-BMvtD9iF8CpCJzqYJ93-22">
          <mxGeometry y="170" width="180" height="20" as="geometry" />
        </mxCell>
        <mxCell id="-BMvtD9iF8CpCJzqYJ93-43" value="&amp;nbsp;+ activate(): void" style="text;html=1;align=left;verticalAlign=middle;resizable=0;points=[];autosize=1;" vertex="1" parent="-BMvtD9iF8CpCJzqYJ93-22">
          <mxGeometry y="190" width="180" height="20" as="geometry" />
        </mxCell>
        <mxCell id="-BMvtD9iF8CpCJzqYJ93-44" value="&amp;nbsp;+ deactivate(): void" style="text;html=1;align=left;verticalAlign=middle;resizable=0;points=[];autosize=1;" vertex="1" parent="-BMvtD9iF8CpCJzqYJ93-22">
          <mxGeometry y="210" width="180" height="20" as="geometry" />
        </mxCell>
        <mxCell id="-BMvtD9iF8CpCJzqYJ93-45" value="&amp;nbsp;+ isBelowThreshold(): boolean" style="text;html=1;align=left;verticalAlign=middle;resizable=0;points=[];autosize=1;" vertex="1" parent="-BMvtD9iF8CpCJzqYJ93-22">
          <mxGeometry y="230" width="180" height="20" as="geometry" />
        </mxCell>
        <mxCell id="-BMvtD9iF8CpCJzqYJ93-46" value="" style="endArrow=diamondThin;endFill=0;endSize=24;html=1;exitX=1.002;exitY=0.23;exitDx=0;exitDy=0;exitPerimeter=0;" edge="1" parent="WIyWlLk6GJQsqaUBKTNV-1" source="-BMvtD9iF8CpCJzqYJ93-38">
          <mxGeometry width="160" relative="1" as="geometry">
            <mxPoint x="120" y="460" as="sourcePoint" />
            <mxPoint x="260" y="460" as="targetPoint" />
          </mxGeometry>
        </mxCell>
        <mxCell id="-BMvtD9iF8CpCJzqYJ93-47" value="1" style="text;html=1;align=center;verticalAlign=middle;resizable=0;points=[];autosize=1;" vertex="1" parent="WIyWlLk6GJQsqaUBKTNV-1">
          <mxGeometry x="200" y="433" width="20" height="20" as="geometry" />
        </mxCell>
        <mxCell id="-BMvtD9iF8CpCJzqYJ93-51" value="1" style="text;html=1;align=center;verticalAlign=middle;resizable=0;points=[];autosize=1;" vertex="1" parent="WIyWlLk6GJQsqaUBKTNV-1">
          <mxGeometry x="240" y="433" width="20" height="20" as="geometry" />
        </mxCell>
        <mxCell id="-BMvtD9iF8CpCJzqYJ93-59" value="Customer" style="swimlane;fontStyle=1;align=center;verticalAlign=top;childLayout=stackLayout;horizontal=1;startSize=26;horizontalStack=0;resizeParent=1;resizeParentMax=0;resizeLast=0;collapsible=1;marginBottom=0;" vertex="1" parent="WIyWlLk6GJQsqaUBKTNV-1">
          <mxGeometry x="840" y="420" width="160" height="112" as="geometry" />
        </mxCell>
        <mxCell id="-BMvtD9iF8CpCJzqYJ93-60" value="+ transactionCount: int" style="text;strokeColor=none;fillColor=none;align=left;verticalAlign=top;spacingLeft=4;spacingRight=4;overflow=hidden;rotatable=0;points=[[0,0.5],[1,0.5]];portConstraint=eastwest;" vertex="1" parent="-BMvtD9iF8CpCJzqYJ93-59">
          <mxGeometry y="26" width="160" height="26" as="geometry" />
        </mxCell>
        <mxCell id="-BMvtD9iF8CpCJzqYJ93-61" value="" style="line;strokeWidth=1;fillColor=none;align=left;verticalAlign=middle;spacingTop=-1;spacingLeft=3;spacingRight=3;rotatable=0;labelPosition=right;points=[];portConstraint=eastwest;" vertex="1" parent="-BMvtD9iF8CpCJzqYJ93-59">
          <mxGeometry y="52" width="160" height="8" as="geometry" />
        </mxCell>
        <mxCell id="-BMvtD9iF8CpCJzqYJ93-62" value="+ getTransactionCount(): int" style="text;strokeColor=none;fillColor=none;align=left;verticalAlign=top;spacingLeft=4;spacingRight=4;overflow=hidden;rotatable=0;points=[[0,0.5],[1,0.5]];portConstraint=eastwest;" vertex="1" parent="-BMvtD9iF8CpCJzqYJ93-59">
          <mxGeometry y="60" width="160" height="26" as="geometry" />
        </mxCell>
        <mxCell id="-BMvtD9iF8CpCJzqYJ93-64" value="+ calculateDiscount(): float" style="text;strokeColor=none;fillColor=none;align=left;verticalAlign=top;spacingLeft=4;spacingRight=4;overflow=hidden;rotatable=0;points=[[0,0.5],[1,0.5]];portConstraint=eastwest;" vertex="1" parent="-BMvtD9iF8CpCJzqYJ93-59">
          <mxGeometry y="86" width="160" height="26" as="geometry" />
        </mxCell>
        <mxCell id="-BMvtD9iF8CpCJzqYJ93-65" value="Address" style="swimlane;fontStyle=1;align=center;verticalAlign=top;childLayout=stackLayout;horizontal=1;startSize=26;horizontalStack=0;resizeParent=1;resizeParentMax=0;resizeLast=0;collapsible=1;marginBottom=0;" vertex="1" parent="WIyWlLk6GJQsqaUBKTNV-1">
          <mxGeometry x="210" y="120" width="300" height="158" as="geometry" />
        </mxCell>
        <mxCell id="-BMvtD9iF8CpCJzqYJ93-66" value="+ street: String" style="text;strokeColor=none;fillColor=none;align=left;verticalAlign=top;spacingLeft=4;spacingRight=4;overflow=hidden;rotatable=0;points=[[0,0.5],[1,0.5]];portConstraint=eastwest;" vertex="1" parent="-BMvtD9iF8CpCJzqYJ93-65">
          <mxGeometry y="26" width="300" height="26" as="geometry" />
        </mxCell>
        <mxCell id="-BMvtD9iF8CpCJzqYJ93-83" value="" style="endArrow=diamondThin;endFill=1;endSize=24;html=1;" edge="1" parent="-BMvtD9iF8CpCJzqYJ93-65">
          <mxGeometry width="160" relative="1" as="geometry">
            <mxPoint x="300" y="60" as="sourcePoint" />
            <mxPoint x="430" y="60" as="targetPoint" />
          </mxGeometry>
        </mxCell>
        <mxCell id="-BMvtD9iF8CpCJzqYJ93-72" value="+ city: String" style="text;strokeColor=none;fillColor=none;align=left;verticalAlign=top;spacingLeft=4;spacingRight=4;overflow=hidden;rotatable=0;points=[[0,0.5],[1,0.5]];portConstraint=eastwest;" vertex="1" parent="-BMvtD9iF8CpCJzqYJ93-65">
          <mxGeometry y="52" width="300" height="26" as="geometry" />
        </mxCell>
        <mxCell id="-BMvtD9iF8CpCJzqYJ93-73" value="+ state: String" style="text;strokeColor=none;fillColor=none;align=left;verticalAlign=top;spacingLeft=4;spacingRight=4;overflow=hidden;rotatable=0;points=[[0,0.5],[1,0.5]];portConstraint=eastwest;" vertex="1" parent="-BMvtD9iF8CpCJzqYJ93-65">
          <mxGeometry y="78" width="300" height="26" as="geometry" />
        </mxCell>
        <mxCell id="-BMvtD9iF8CpCJzqYJ93-67" value="" style="line;strokeWidth=1;fillColor=none;align=left;verticalAlign=middle;spacingTop=-1;spacingLeft=3;spacingRight=3;rotatable=0;labelPosition=right;points=[];portConstraint=eastwest;" vertex="1" parent="-BMvtD9iF8CpCJzqYJ93-65">
          <mxGeometry y="104" width="300" height="2" as="geometry" />
        </mxCell>
        <mxCell id="-BMvtD9iF8CpCJzqYJ93-68" value="+ getAddressDetails(): String" style="text;strokeColor=none;fillColor=none;align=left;verticalAlign=top;spacingLeft=4;spacingRight=4;overflow=hidden;rotatable=0;points=[[0,0.5],[1,0.5]];portConstraint=eastwest;" vertex="1" parent="-BMvtD9iF8CpCJzqYJ93-65">
          <mxGeometry y="106" width="300" height="26" as="geometry" />
        </mxCell>
        <mxCell id="-BMvtD9iF8CpCJzqYJ93-74" value="+ updateAddressDetails(addressDetail: String): void" style="text;strokeColor=none;fillColor=none;align=left;verticalAlign=top;spacingLeft=4;spacingRight=4;overflow=hidden;rotatable=0;points=[[0,0.5],[1,0.5]];portConstraint=eastwest;" vertex="1" parent="-BMvtD9iF8CpCJzqYJ93-65">
          <mxGeometry y="132" width="300" height="26" as="geometry" />
        </mxCell>
        <mxCell id="-BMvtD9iF8CpCJzqYJ93-75" value="Contact" style="swimlane;fontStyle=1;align=center;verticalAlign=top;childLayout=stackLayout;horizontal=1;startSize=26;horizontalStack=0;resizeParent=1;resizeParentMax=0;resizeLast=0;collapsible=1;marginBottom=0;" vertex="1" parent="WIyWlLk6GJQsqaUBKTNV-1">
          <mxGeometry x="910" y="120" width="300" height="158" as="geometry" />
        </mxCell>
        <mxCell id="-BMvtD9iF8CpCJzqYJ93-76" value="+ name: String" style="text;strokeColor=none;fillColor=none;align=left;verticalAlign=top;spacingLeft=4;spacingRight=4;overflow=hidden;rotatable=0;points=[[0,0.5],[1,0.5]];portConstraint=eastwest;" vertex="1" parent="-BMvtD9iF8CpCJzqYJ93-75">
          <mxGeometry y="26" width="300" height="26" as="geometry" />
        </mxCell>
        <mxCell id="-BMvtD9iF8CpCJzqYJ93-77" value="+ phone: String" style="text;strokeColor=none;fillColor=none;align=left;verticalAlign=top;spacingLeft=4;spacingRight=4;overflow=hidden;rotatable=0;points=[[0,0.5],[1,0.5]];portConstraint=eastwest;" vertex="1" parent="-BMvtD9iF8CpCJzqYJ93-75">
          <mxGeometry y="52" width="300" height="26" as="geometry" />
        </mxCell>
        <mxCell id="-BMvtD9iF8CpCJzqYJ93-78" value="+ email: String" style="text;strokeColor=none;fillColor=none;align=left;verticalAlign=top;spacingLeft=4;spacingRight=4;overflow=hidden;rotatable=0;points=[[0,0.5],[1,0.5]];portConstraint=eastwest;" vertex="1" parent="-BMvtD9iF8CpCJzqYJ93-75">
          <mxGeometry y="78" width="300" height="26" as="geometry" />
        </mxCell>
        <mxCell id="-BMvtD9iF8CpCJzqYJ93-79" value="" style="line;strokeWidth=1;fillColor=none;align=left;verticalAlign=middle;spacingTop=-1;spacingLeft=3;spacingRight=3;rotatable=0;labelPosition=right;points=[];portConstraint=eastwest;" vertex="1" parent="-BMvtD9iF8CpCJzqYJ93-75">
          <mxGeometry y="104" width="300" height="2" as="geometry" />
        </mxCell>
        <mxCell id="-BMvtD9iF8CpCJzqYJ93-80" value="+ getContactDetails(): String" style="text;strokeColor=none;fillColor=none;align=left;verticalAlign=top;spacingLeft=4;spacingRight=4;overflow=hidden;rotatable=0;points=[[0,0.5],[1,0.5]];portConstraint=eastwest;" vertex="1" parent="-BMvtD9iF8CpCJzqYJ93-75">
          <mxGeometry y="106" width="300" height="26" as="geometry" />
        </mxCell>
        <mxCell id="-BMvtD9iF8CpCJzqYJ93-81" value="+ updateContactDetails(contactDetail: String): void" style="text;strokeColor=none;fillColor=none;align=left;verticalAlign=top;spacingLeft=4;spacingRight=4;overflow=hidden;rotatable=0;points=[[0,0.5],[1,0.5]];portConstraint=eastwest;" vertex="1" parent="-BMvtD9iF8CpCJzqYJ93-75">
          <mxGeometry y="132" width="300" height="26" as="geometry" />
        </mxCell>
        <mxCell id="-BMvtD9iF8CpCJzqYJ93-84" value="" style="endArrow=diamondThin;endFill=1;endSize=24;html=1;exitX=0;exitY=0.5;exitDx=0;exitDy=0;entryX=1;entryY=0.5;entryDx=0;entryDy=0;" edge="1" parent="WIyWlLk6GJQsqaUBKTNV-1" source="-BMvtD9iF8CpCJzqYJ93-77" target="zkfFHV4jXpPFQw0GAbJ--19">
          <mxGeometry width="160" relative="1" as="geometry">
            <mxPoint x="800" y="180" as="sourcePoint" />
            <mxPoint x="830" y="240" as="targetPoint" />
          </mxGeometry>
        </mxCell>
        <mxCell id="-BMvtD9iF8CpCJzqYJ93-85" value="1" style="text;html=1;align=center;verticalAlign=middle;resizable=0;points=[];autosize=1;" vertex="1" parent="WIyWlLk6GJQsqaUBKTNV-1">
          <mxGeometry x="510" y="150" width="20" height="20" as="geometry" />
        </mxCell>
        <mxCell id="-BMvtD9iF8CpCJzqYJ93-86" value="1" style="text;html=1;align=center;verticalAlign=middle;resizable=0;points=[];autosize=1;" vertex="1" parent="WIyWlLk6GJQsqaUBKTNV-1">
          <mxGeometry x="620" y="150" width="20" height="20" as="geometry" />
        </mxCell>
        <mxCell id="-BMvtD9iF8CpCJzqYJ93-87" value="1" style="text;html=1;align=center;verticalAlign=middle;resizable=0;points=[];autosize=1;" vertex="1" parent="WIyWlLk6GJQsqaUBKTNV-1">
          <mxGeometry x="800" y="160" width="20" height="20" as="geometry" />
        </mxCell>
        <mxCell id="-BMvtD9iF8CpCJzqYJ93-88" value="1" style="text;html=1;align=center;verticalAlign=middle;resizable=0;points=[];autosize=1;" vertex="1" parent="WIyWlLk6GJQsqaUBKTNV-1">
          <mxGeometry x="890" y="160" width="20" height="20" as="geometry" />
        </mxCell>
        <mxCell id="-BMvtD9iF8CpCJzqYJ93-90" value="Extends" style="endArrow=block;endSize=16;endFill=0;html=1;exitX=0.446;exitY=0.007;exitDx=0;exitDy=0;exitPerimeter=0;entryX=0.5;entryY=1;entryDx=0;entryDy=0;" edge="1" parent="WIyWlLk6GJQsqaUBKTNV-1" source="zkfFHV4jXpPFQw0GAbJ--6" target="zkfFHV4jXpPFQw0GAbJ--17">
          <mxGeometry width="160" relative="1" as="geometry">
            <mxPoint x="610" y="360" as="sourcePoint" />
            <mxPoint x="730" y="320" as="targetPoint" />
          </mxGeometry>
        </mxCell>
        <mxCell id="-BMvtD9iF8CpCJzqYJ93-91" value="Extends" style="endArrow=block;endSize=16;endFill=0;html=1;" edge="1" parent="WIyWlLk6GJQsqaUBKTNV-1">
          <mxGeometry width="160" relative="1" as="geometry">
            <mxPoint x="920" y="417" as="sourcePoint" />
            <mxPoint x="740" y="310" as="targetPoint" />
          </mxGeometry>
        </mxCell>
        <mxCell id="-BMvtD9iF8CpCJzqYJ93-93" value="" style="endArrow=diamondThin;endFill=0;endSize=24;html=1;exitX=-0.039;exitY=1.09;exitDx=0;exitDy=0;exitPerimeter=0;entryX=-0.009;entryY=0.4;entryDx=0;entryDy=0;entryPerimeter=0;" edge="1" parent="WIyWlLk6GJQsqaUBKTNV-1" source="-BMvtD9iF8CpCJzqYJ93-101" target="-BMvtD9iF8CpCJzqYJ93-58">
          <mxGeometry width="160" relative="1" as="geometry">
            <mxPoint x="250" y="580" as="sourcePoint" />
            <mxPoint x="410" y="580" as="targetPoint" />
          </mxGeometry>
        </mxCell>
        <mxCell id="-BMvtD9iF8CpCJzqYJ93-98" value="*" style="text;html=1;align=center;verticalAlign=middle;resizable=0;points=[];autosize=1;" vertex="1" parent="WIyWlLk6GJQsqaUBKTNV-1">
          <mxGeometry x="440" y="453" width="20" height="20" as="geometry" />
        </mxCell>
        <mxCell id="-BMvtD9iF8CpCJzqYJ93-99" value="1" style="text;html=1;align=center;verticalAlign=middle;resizable=0;points=[];autosize=1;" vertex="1" parent="WIyWlLk6GJQsqaUBKTNV-1">
          <mxGeometry x="480" y="450" width="20" height="20" as="geometry" />
        </mxCell>
        <mxCell id="-BMvtD9iF8CpCJzqYJ93-100" value="*" style="text;html=1;align=center;verticalAlign=middle;resizable=0;points=[];autosize=1;" vertex="1" parent="WIyWlLk6GJQsqaUBKTNV-1">
          <mxGeometry x="480" y="550" width="20" height="20" as="geometry" />
        </mxCell>
        <mxCell id="-BMvtD9iF8CpCJzqYJ93-101" value="*" style="text;html=1;align=center;verticalAlign=middle;resizable=0;points=[];autosize=1;" vertex="1" parent="WIyWlLk6GJQsqaUBKTNV-1">
          <mxGeometry x="200" y="560" width="20" height="20" as="geometry" />
        </mxCell>
      </root>
    </mxGraphModel>
  </diagram>
</mxfile>
